<?xml version="1.0" encoding="iso-8859-1"?>
<!-- Generator: Adobe Illustrator 18.0.0, SVG Export Plug-In . SVG Version: 6.00 Build 0)  -->
<!DOCTYPE svg PUBLIC "-//W3C//DTD SVG 1.1//EN" "http://www.w3.org/Graphics/SVG/1.1/DTD/svg11.dtd">
<svg xmlns="http://www.w3.org/2000/svg" xmlns:xlink="http://www.w3.org/1999/xlink" version="1.1" id="Capa_1" x="0px" y="0px" viewBox="0 0 297 297" style="enable-background:new 0 0 297 297;" xml:space="preserve" width="64px" height="64px">
<path d="M297,181.284c0-24.795-20.174-44.968-44.969-44.968c-24.795,0-44.968,20.173-44.968,44.968  c0,21.195,14.745,39,34.511,43.728v49.347H26.144c-2.834,0-5.229-2.396-5.229-5.229v-20.393c0-2.834,2.395-5.229,5.229-5.229  h123.925c14.416,0,26.145-11.729,26.145-26.145v-20.393c0-14.416-11.729-26.144-26.145-26.144H77.909  c-2.834,0-5.229-2.396-5.229-5.229v-20.393c0-2.834,2.395-5.229,5.229-5.229h41.257c5.775,0,10.458-4.683,10.458-10.458V79.904  c16.882-4.605,29.333-20.065,29.333-38.387c0-21.941-17.851-39.791-39.792-39.791c-21.94,0-39.791,17.851-39.791,39.791  c0,18.322,12.452,33.782,29.335,38.388v39.156h-30.8c-14.416,0-26.144,11.728-26.144,26.144v20.393  c0,14.416,11.728,26.145,26.144,26.145h72.159c2.834,0,5.229,2.395,5.229,5.229v20.393c0,2.834-2.396,5.23-5.229,5.23H26.144  C11.727,222.593,0,234.32,0,248.736v20.393c0,14.416,11.727,26.145,26.144,26.145h225.889c5.775,0,10.458-4.683,10.458-10.458  v-59.804C282.257,220.283,297,202.479,297,181.284z M100.289,41.518c0-10.408,8.468-18.876,18.876-18.876  c10.409,0,18.876,8.468,18.876,18.876c0,10.409-8.467,18.876-18.876,18.876C108.757,60.394,100.289,51.927,100.289,41.518z   M252.031,205.337c-13.263,0-24.053-10.789-24.053-24.053c0-13.263,10.79-24.053,24.053-24.053c13.264,0,24.053,10.79,24.053,24.053  C276.084,194.548,265.295,205.337,252.031,205.337z" fill="#FFFFFF"/>
<g>
</g>
<g>
</g>
<g>
</g>
<g>
</g>
<g>
</g>
<g>
</g>
<g>
</g>
<g>
</g>
<g>
</g>
<g>
</g>
<g>
</g>
<g>
</g>
<g>
</g>
<g>
</g>
<g>
</g>
</svg>
